<svg width="100" height="8" viewBox="0 0 100 8" fill="none" xmlns="http://www.w3.org/2000/svg">
<path opacity="0.2" d="M99.3536 4.35355C99.5488 4.15829 99.5488 3.84171 99.3536 3.64645L96.1716 0.464466C95.9763 0.269204 95.6597 0.269204 95.4645 0.464466C95.2692 0.659728 95.2692 0.976311 95.4645 1.17157L98.2929 4L95.4645 6.82843C95.2692 7.02369 95.2692 7.34027 95.4645 7.53553C95.6597 7.7308 95.9763 7.7308 96.1716 7.53553L99.3536 4.35355ZM0 4V4.5H1.45588V4V3.5H0V4ZM4.36765 4V4.5H7.27941V4V3.5H4.36765V4ZM10.1912 4V4.5H13.1029V4V3.5H10.1912V4ZM16.0147 4V4.5H18.9265V4V3.5H16.0147V4ZM21.8382 4V4.5H24.75V4V3.5H21.8382V4ZM27.6618 4V4.5H30.5735V4V3.5H27.6618V4ZM33.4853 4V4.5H36.3971V4V3.5H33.4853V4ZM39.3088 4V4.5H42.2206V4V3.5H39.3088V4ZM45.1324 4V4.5H48.0441V4V3.5H45.1324V4ZM50.9559 4V4.5H53.8677V4V3.5H50.9559V4ZM56.7794 4V4.5H59.6912V4V3.5H56.7794V4ZM62.603 4V4.5H65.5147V4V3.5H62.603V4ZM68.4265 4V4.5H71.3382V4V3.5H68.4265V4ZM74.25 4V4.5H77.1618V4V3.5H74.25V4ZM80.0735 4V4.5H82.9853V4V3.5H80.0735V4ZM85.8971 4V4.5H88.8088V4V3.5H85.8971V4ZM91.7206 4V4.5H94.6324V4V3.5H91.7206V4ZM97.5441 4V4.5H99V4V3.5H97.5441V4ZM99.3536 4.35355C99.5488 4.15829 99.5488 3.84171 99.3536 3.64645L96.1716 0.464466C95.9763 0.269204 95.6597 0.269204 95.4645 0.464466C95.2692 0.659728 95.2692 0.976311 95.4645 1.17157L98.2929 4L95.4645 6.82843C95.2692 7.02369 95.2692 7.34027 95.4645 7.53553C95.6597 7.7308 95.9763 7.7308 96.1716 7.53553L99.3536 4.35355ZM0 4V4.5H1.45588V4V3.5H0V4ZM4.36765 4V4.5H7.27941V4V3.5H4.36765V4ZM10.1912 4V4.5H13.1029V4V3.5H10.1912V4ZM16.0147 4V4.5H18.9265V4V3.5H16.0147V4ZM21.8382 4V4.5H24.75V4V3.5H21.8382V4ZM27.6618 4V4.5H30.5735V4V3.5H27.6618V4ZM33.4853 4V4.5H36.3971V4V3.5H33.4853V4ZM39.3088 4V4.5H42.2206V4V3.5H39.3088V4ZM45.1324 4V4.5H48.0441V4V3.5H45.1324V4ZM50.9559 4V4.5H53.8677V4V3.5H50.9559V4ZM56.7794 4V4.5H59.6912V4V3.5H56.7794V4ZM62.603 4V4.5H65.5147V4V3.5H62.603V4ZM68.4265 4V4.5H71.3382V4V3.5H68.4265V4ZM74.25 4V4.5H77.1618V4V3.5H74.25V4ZM80.0735 4V4.5H82.9853V4V3.5H80.0735V4ZM85.8971 4V4.5H88.8088V4V3.5H85.8971V4ZM91.7206 4V4.5H94.6324V4V3.5H91.7206V4ZM97.5441 4V4.5H99V4V3.5H97.5441V4Z" fill="#0F255F"/>
</svg>
