<svg width="32" height="32" viewBox="0 0 32 32" fill="none" xmlns="http://www.w3.org/2000/svg">
<path fill-rule="evenodd" clip-rule="evenodd" d="M15.9996 7.8499C11.4985 7.8499 7.84961 11.4988 7.84961 15.9999C7.84961 20.501 11.4985 24.1499 15.9996 24.1499C20.5007 24.1499 24.1496 20.501 24.1496 15.9999C24.1496 11.4988 20.5007 7.8499 15.9996 7.8499ZM6.14961 15.9999C6.14961 10.5599 10.5596 6.1499 15.9996 6.1499C21.4396 6.1499 25.8496 10.5599 25.8496 15.9999C25.8496 21.4399 21.4396 25.8499 15.9996 25.8499C10.5596 25.8499 6.14961 21.4399 6.14961 15.9999Z" fill="white"/>
<path fill-rule="evenodd" clip-rule="evenodd" d="M15.9996 14.5874C16.4691 14.5874 16.8496 14.968 16.8496 15.4374V20.4999C16.8496 20.9693 16.4691 21.3499 15.9996 21.3499C15.5302 21.3499 15.1496 20.9693 15.1496 20.4999V15.4374C15.1496 14.968 15.5302 14.5874 15.9996 14.5874Z" fill="white"/>
<path fill-rule="evenodd" clip-rule="evenodd" d="M15.9996 11.2124C16.4691 11.2124 16.8496 11.593 16.8496 12.0624V12.6249C16.8496 13.0943 16.4691 13.4749 15.9996 13.4749C15.5302 13.4749 15.1496 13.0943 15.1496 12.6249V12.0624C15.1496 11.593 15.5302 11.2124 15.9996 11.2124Z" fill="white"/>
</svg>
