<svg width="25" height="25" viewBox="0 0 25 25" fill="none" xmlns="http://www.w3.org/2000/svg">
<path d="M2.2872 5.78318C2.28907 5.57928 2.39638 5.38412 2.58594 5.23986C2.7755 5.09561 3.0321 5.01383 3.30031 5.01221H21.6997C22.2594 5.01221 22.7128 5.35771 22.7128 5.78318V18.2167C22.711 18.4206 22.6036 18.6157 22.4141 18.76C22.2245 18.9042 21.9679 18.986 21.6997 18.9876H3.30031C3.03152 18.9874 2.77384 18.9061 2.58387 18.7615C2.39391 18.617 2.2872 18.421 2.2872 18.2167V5.78318ZM4.32976 6.56503V17.4348H20.6703V6.56503H4.32976ZM6.37232 8.11786H10.9611V12.7763H6.37232V8.11786ZM7.52354 9.31756V11.6012H9.94644V9.31756H7.52354ZM6.37232 14.3292H18.6277V15.882H6.37232V14.3292ZM12.2301 8.11786H18.6277V9.67068H12.2301V8.11786ZM12.2301 11.2235H18.6277V12.7763H12.2301V11.2235Z" fill="#0F255F"/>
</svg>
