<svg width="32" height="32" viewBox="0 0 32 32" fill="none" xmlns="http://www.w3.org/2000/svg">
<path fill-rule="evenodd" clip-rule="evenodd" d="M15.4996 9.304C14.0361 9.304 12.8496 10.4904 12.8496 11.954C12.8496 13.4176 14.0361 14.604 15.4996 14.604C16.9632 14.604 18.1496 13.4176 18.1496 11.954C18.1496 10.4904 16.9632 9.304 15.4996 9.304ZM11.1496 11.954C11.1496 9.55157 13.0972 7.604 15.4996 7.604C17.9021 7.604 19.8496 9.55157 19.8496 11.954C19.8496 14.3564 17.9021 16.304 15.4996 16.304C13.0972 16.304 11.1496 14.3564 11.1496 11.954Z" fill="white"/>
<path fill-rule="evenodd" clip-rule="evenodd" d="M6.14961 22.5C6.14961 19.8215 8.32103 17.65 10.9996 17.65H19.9996C22.6782 17.65 24.8496 19.8215 24.8496 22.5V25C24.8496 25.4695 24.4691 25.35 23.9996 25.35C23.5302 25.35 23.1496 24.9695 23.1496 24.5V22.5C23.1496 20.7603 21.7393 19.35 19.9996 19.35H10.9996C9.25992 19.35 7.84961 20.7603 7.84961 22.5V24.5C7.84961 24.9695 7.46905 25.35 6.99961 25.35C6.53017 25.35 6.14961 25.4695 6.14961 25L6.14961 22.5Z" fill="white"/>
<path fill-rule="evenodd" clip-rule="evenodd" d="M6.14961 25C6.14961 24.5306 6.53017 24.15 6.99961 24.15L23.9996 24.15C24.4691 24.15 24.8496 24.5306 24.8496 25C24.8496 25.4695 24.4691 25.85 23.9996 25.85H6.99961C6.53017 25.85 6.14961 25.4695 6.14961 25Z" fill="white"/>
</svg>
