<svg width="32" height="32" viewBox="0 0 32 32" fill="none" xmlns="http://www.w3.org/2000/svg">
<path fill-rule="evenodd" clip-rule="evenodd" d="M10.4638 8.8499C9.5725 8.8499 8.84999 9.57241 8.84999 10.4637V21.3043C8.84999 22.1955 9.5725 22.918 10.4638 22.918H21.3043C22.1956 22.918 22.9181 22.1955 22.9181 21.3043V15.884C22.9181 15.4145 23.2987 15.034 23.7681 15.034C24.2376 15.034 24.6181 15.4145 24.6181 15.884V21.3043C24.6181 23.1344 23.1345 24.618 21.3043 24.618H10.4638C8.63362 24.618 7.14999 23.1344 7.14999 21.3043V10.4637C7.14999 8.63352 8.63362 7.1499 10.4638 7.1499H19.8261C20.2955 7.1499 20.6761 7.53046 20.6761 7.9999C20.6761 8.46934 20.2955 8.8499 19.8261 8.8499H10.4638ZM25.601 7.89162C25.933 8.22356 25.933 8.76175 25.601 9.0937L16.4851 18.2096C16.1531 18.5416 15.615 18.5416 15.283 18.2096L12.3265 15.2531C11.9945 14.9212 11.9945 14.383 12.3265 14.051C12.6584 13.7191 13.1966 13.7191 13.5286 14.051L15.8841 16.4065L24.399 7.89162C24.7309 7.55967 25.2691 7.55967 25.601 7.89162Z" fill="white"/>
</svg>
