<svg width="25" height="25" viewBox="0 0 25 25" fill="none" xmlns="http://www.w3.org/2000/svg">
<path d="M18.7545 14.2128V7.3617C18.7545 6.41967 17.9489 5.64893 16.9643 5.64893H4.43317C3.44858 5.64893 2.64301 6.41967 2.64301 7.3617V14.2128C2.64301 15.1548 3.44858 15.9256 4.43317 15.9256H16.9643C17.9489 15.9256 18.7545 15.1548 18.7545 14.2128ZM16.9643 14.2128H4.43317V7.3617H16.9643V14.2128ZM10.6988 8.21809C9.21291 8.21809 8.0135 9.36565 8.0135 10.7873C8.0135 12.2089 9.21291 13.3564 10.6988 13.3564C12.1846 13.3564 13.384 12.2089 13.384 10.7873C13.384 9.36565 12.1846 8.21809 10.6988 8.21809ZM22.3348 8.21809V17.6384C22.3348 18.5804 21.5293 19.3511 20.5447 19.3511H5.32825V17.6384H20.5447V8.21809H22.3348Z" fill="#0F255F"/>
<path d="M10.8039 8.72432V9.35524H10.4936V8.72432H10.8039ZM10.7667 12.1023V12.6546H10.4584V12.1023H10.7667ZM11.1804 11.4486C11.1804 11.3659 11.1618 11.2914 11.1245 11.2252C11.0873 11.159 11.0259 11.0984 10.9404 11.0432C10.8549 10.988 10.7405 10.937 10.597 10.8901C10.4233 10.8363 10.273 10.7708 10.1461 10.6936C10.0206 10.6164 9.92336 10.5205 9.85441 10.4061C9.78683 10.2916 9.75305 10.153 9.75305 9.99029C9.75305 9.82067 9.78959 9.67449 9.86268 9.55175C9.93577 9.42902 10.0392 9.33455 10.173 9.26836C10.3067 9.20216 10.464 9.16906 10.6446 9.16906C10.7853 9.16906 10.9108 9.19044 11.0211 9.23319C11.1314 9.27456 11.2245 9.33662 11.3003 9.41936C11.3776 9.50211 11.4362 9.60347 11.4762 9.72344C11.5175 9.84342 11.5382 9.98202 11.5382 10.1392H11.1576C11.1576 10.0468 11.1466 9.96202 11.1245 9.88479C11.1025 9.80757 11.0694 9.74068 11.0252 9.68414C10.9811 9.62622 10.9273 9.58209 10.8639 9.55175C10.8004 9.52003 10.7274 9.50417 10.6446 9.50417C10.5288 9.50417 10.4329 9.52417 10.3571 9.56416C10.2826 9.60416 10.2274 9.6607 10.1916 9.73379C10.1557 9.8055 10.1378 9.88893 10.1378 9.98409C10.1378 10.0723 10.1557 10.1496 10.1916 10.2158C10.2274 10.282 10.2881 10.342 10.3736 10.3957C10.4605 10.4481 10.5798 10.4999 10.7315 10.5509C10.9094 10.6074 11.0604 10.6743 11.1845 10.7515C11.3086 10.8274 11.4031 10.9212 11.4679 11.0329C11.5327 11.1432 11.5651 11.2804 11.5651 11.4445C11.5651 11.6224 11.5251 11.7727 11.4451 11.8955C11.3652 12.0168 11.2528 12.1092 11.108 12.1727C10.9632 12.2361 10.7935 12.2678 10.5991 12.2678C10.4819 12.2678 10.366 12.2519 10.2516 12.2202C10.1371 12.1885 10.0337 12.1368 9.94129 12.0651C9.84889 11.992 9.77511 11.8961 9.71995 11.7776C9.66479 11.6576 9.63721 11.5107 9.63721 11.3369H10.022C10.022 11.4542 10.0385 11.5514 10.0716 11.6286C10.1061 11.7045 10.1516 11.7651 10.2081 11.8106C10.2647 11.8548 10.3267 11.8865 10.3943 11.9058C10.4633 11.9237 10.5315 11.9327 10.5991 11.9327C10.7232 11.9327 10.828 11.9134 10.9135 11.8748C11.0004 11.8348 11.0666 11.7782 11.1121 11.7052C11.1576 11.6321 11.1804 11.5466 11.1804 11.4486Z" fill="#E8E8FF"/>
</svg>
