<svg width="25" height="25" viewBox="0 0 25 25" fill="none" xmlns="http://www.w3.org/2000/svg">
<path d="M20.5 2.5H8.5C7.397 2.5 6.5 3.397 6.5 4.5V16.5C6.5 17.603 7.397 18.5 8.5 18.5H20.5C21.603 18.5 22.5 17.603 22.5 16.5V4.5C22.5 3.397 21.603 2.5 20.5 2.5ZM8.5 16.5V4.5H20.5L20.502 16.5H8.5Z" fill="#0F255F"/>
<path d="M4.5 8.50001H2.5V20.5C2.5 21.603 3.397 22.5 4.5 22.5H16.5V20.5H4.5V8.50001ZM13.433 12.019L11.707 10.293L10.293 11.707L13.567 14.981L19.269 8.14101L17.731 6.85901L13.433 12.019Z" fill="#0F255F"/>
</svg>
